<svg xmlns="http://www.w3.org/2000/svg" width="256" height="256" viewBox="0 0 100 100"><rect width="100" height="100" rx="50" fill="#f8c749"></rect><path fill="#fff" d="M31.64 34.07L31.64 34.07Q28.58 34.07 25.97 35.11Q23.36 36.14 21.47 38.17Q19.58 40.19 18.50 43.21Q17.42 46.22 17.42 50.09L17.42 50.09Q17.42 57.83 21.29 61.93Q25.16 66.02 31.64 66.02L31.64 66.02Q35.42 66.02 37.94 64.99Q40.46 63.95 42.44 62.60L42.44 62.60Q43.43 63.14 44.06 63.95Q44.69 64.76 44.69 65.93L44.69 65.93Q44.69 67.19 43.70 68.27Q42.71 69.35 40.95 70.16Q39.20 70.97 36.82 71.47Q34.43 71.96 31.64 71.96L31.64 71.96Q26.96 71.96 23.00 70.61Q19.04 69.26 16.16 66.56Q13.28 63.86 11.66 59.77Q10.04 55.67 10.04 50.09L10.04 50.09Q10.04 44.60 11.75 40.51Q13.46 36.41 16.34 33.62Q19.22 30.83 23.14 29.44Q27.05 28.04 31.46 28.04L31.46 28.04Q34.25 28.04 36.64 28.54Q39.02 29.03 40.73 29.93Q42.44 30.83 43.39 31.96Q44.33 33.08 44.33 34.25L44.33 34.25Q44.33 35.33 43.70 36.14Q43.07 36.95 42.08 37.40L42.08 37.40Q40.10 36.05 37.76 35.06Q35.42 34.07 31.64 34.07ZM86.54 28.40L86.54 28.40Q88.07 28.40 89.02 29.21Q89.96 30.02 89.96 31.55L89.96 31.55Q89.96 32.54 89.24 35.02Q88.52 37.49 87.35 40.87Q86.18 44.24 84.70 48.29Q83.21 52.34 81.55 56.35Q79.88 60.35 78.22 64.04Q76.55 67.73 75.11 70.43L75.11 70.43Q74.66 70.79 73.53 71.06Q72.41 71.33 71.15 71.33L71.15 71.33Q67.82 71.33 66.83 69.44L66.83 69.44Q66.02 67.91 64.76 65.21Q63.50 62.51 62.06 59.09Q60.62 55.67 59.09 51.80Q57.56 47.93 56.12 44.11Q54.68 40.28 53.42 36.73Q52.16 33.17 51.35 30.38L51.35 30.38Q51.98 29.48 53.06 28.94Q54.14 28.40 55.22 28.40L55.22 28.40Q56.84 28.40 57.70 29.21Q58.55 30.02 59.27 31.91L59.27 31.91L64.85 48.02Q65.39 49.55 66.20 51.76Q67.01 53.96 67.87 56.26Q68.72 58.55 69.58 60.71Q70.43 62.87 70.97 64.40L70.97 64.40L71.33 64.40Q74.93 55.31 78.03 46.49Q81.14 37.67 83.48 29.12L83.48 29.12Q84.65 28.40 86.54 28.40Z"></path></svg>